<?xml version="1.0" encoding="UTF-8"?>
<svg id="Layer_1" xmlns="http://www.w3.org/2000/svg" version="1.1" viewBox="0 0 125.2 152.1">
  <!-- Generator: Adobe Illustrator 29.8.6, SVG Export Plug-In . SVG Version: 2.1.1 Build 1)  -->
  <defs>
    <style>
      .st0 {
        fill: #fff;
      }
    </style>
  </defs>
  <path class="st0" d="M102.9,80.7c-.2-18.3,14.9-27.1,15.6-27.5-8.5-12.4-21.7-14.1-26.4-14.3-11.3-1.1-22,6.6-27.7,6.6s-14.5-6.5-23.9-6.3c-12.3.2-23.6,7.1-29.9,18.1-12.7,22.1-3.3,54.9,9.2,72.9,6.1,8.8,13.3,18.7,22.8,18.3,9.2-.4,12.6-5.9,23.7-5.9s14.2,5.9,23.9,5.7c9.9-.2,16.1-8.9,22.1-17.8,7-10.2,9.8-20.1,10-20.6-.2,0-19.2-7.4-19.4-29.3"/>
  <path class="st0" d="M84.7,27c5.1-6.1,8.5-14.6,7.5-23.1-7.3.3-16.1,4.8-21.3,11-4.7,5.4-8.8,14.1-7.7,22.4,8.1.6,16.4-4.1,21.4-10.2"/>
</svg>