<?xml version="1.0" encoding="UTF-8"?>
<svg xmlns="http://www.w3.org/2000/svg" xmlns:xlink="http://www.w3.org/1999/xlink" version="1.1" viewBox="0 0 1920 506.64">
  <!-- Generator: Adobe Illustrator 29.8.3, SVG Export Plug-In . SVG Version: 2.1.1 Build 3)  -->
  <defs>
    <style>
      .st0 {
        fill: url(#linear-gradient2);
      }

      .st1 {
        fill: url(#linear-gradient1);
      }

      .st2 {
        fill: url(#linear-gradient3);
      }

      .st3 {
        fill: url(#linear-gradient);
      }

      .st4 {
        fill: #fff;
      }
    </style>
    <linearGradient id="linear-gradient" x1="1619.88" y1="289.88" x2="1909.23" y2="289.88" gradientUnits="userSpaceOnUse">
      <stop offset="0" stop-color="#01adff"/>
      <stop offset="1" stop-color="#7c2ad2"/>
    </linearGradient>
    <linearGradient id="linear-gradient1" x1="1705.98" y1="362.63" x2="1912.03" y2="362.63" gradientUnits="userSpaceOnUse">
      <stop offset="0" stop-color="#01adff"/>
      <stop offset="1" stop-color="#7c2ad2"/>
    </linearGradient>
    <linearGradient id="linear-gradient2" x1="3.08" y1="246.86" x2="465.58" y2="246.86" gradientUnits="userSpaceOnUse">
      <stop offset="0" stop-color="#01adff"/>
      <stop offset=".94" stop-color="#7c2ad2"/>
    </linearGradient>
    <linearGradient id="linear-gradient3" x1="5.72" y1="246.86" x2="456.21" y2="246.86" xlink:href="#linear-gradient2"/>
  </defs>
  <g id="Outlined">
    <g>
      <path class="st3" d="M1677.99,169.45v240.87h-55.66v-240.87h55.66Z"/>
      <path class="st1" d="M1912.03,228.69l-113.93,267.89h-59.89l41.66-92.44-73.89-175.45h62.17l41.99,113.6,41.67-113.6h60.22Z"/>
    </g>
    <g>
      <path class="st4" d="M634.43,404.46c-13.24-5.42-23.82-13.45-31.74-24.09-7.92-10.63-12.1-23.44-12.53-38.41h59.24c.86,8.46,3.79,14.92,8.79,19.37,4.99,4.45,11.5,6.67,19.53,6.67s14.75-1.9,19.53-5.7c4.77-3.8,7.16-9.06,7.16-15.79,0-5.64-1.9-10.3-5.7-14-3.8-3.69-8.46-6.72-14-9.11-5.53-2.39-13.4-5.1-23.6-8.14-14.76-4.56-26.8-9.12-36.13-13.67-9.33-4.56-17.36-11.28-24.09-20.18-6.73-8.9-10.09-20.51-10.09-34.83,0-21.26,7.7-37.92,23.11-49.96,15.41-12.04,35.48-18.06,60.22-18.06s45.46,6.02,60.87,18.06c15.41,12.04,23.65,28.81,24.74,50.29h-60.22c-.44-7.37-3.15-13.18-8.14-17.41-4.99-4.23-11.39-6.35-19.2-6.35-6.73,0-12.16,1.79-16.28,5.37-4.13,3.58-6.18,8.74-6.18,15.46,0,7.38,3.47,13.13,10.42,17.25,6.94,4.12,17.79,8.57,32.55,13.34,14.75,4.99,26.74,9.77,35.97,14.32,9.22,4.56,17.2,11.18,23.92,19.86,6.72,8.68,10.09,19.86,10.09,33.53s-3.31,24.85-9.93,35.48c-6.62,10.63-16.22,19.1-28.81,25.39-12.59,6.3-27.45,9.44-44.59,9.44s-31.69-2.71-44.92-8.14Z"/>
      <path class="st4" d="M906.23,363.12v47.2h-28.32c-20.18,0-35.92-4.93-47.2-14.81-11.29-9.87-16.93-25.98-16.93-48.34v-72.26h-22.13v-46.22h22.13v-44.27h55.66v44.27h36.46v46.22h-36.46v72.91c0,5.43,1.3,9.33,3.91,11.72,2.6,2.39,6.94,3.58,13.02,3.58h19.86Z"/>
      <path class="st4" d="M949.35,201.18c-6.18-5.75-9.28-12.86-9.28-21.32s3.09-15.89,9.28-21.65c6.19-5.75,14.16-8.63,23.92-8.63s17.41,2.88,23.6,8.63c6.18,5.75,9.28,12.97,9.28,21.65s-3.09,15.57-9.28,21.32c-6.19,5.75-14.05,8.63-23.6,8.63s-17.74-2.87-23.92-8.63ZM1000.94,228.69v181.63h-55.66v-181.63h55.66Z"/>
      <path class="st4" d="M1150.68,363.12v47.2h-28.32c-20.18,0-35.92-4.93-47.2-14.81-11.29-9.87-16.93-25.98-16.93-48.34v-72.26h-22.13v-46.22h22.13v-44.27h55.66v44.27h36.46v46.22h-36.46v72.91c0,5.43,1.3,9.33,3.91,11.72,2.6,2.39,6.94,3.58,13.02,3.58h19.86Z"/>
      <path class="st4" d="M1190.22,270.03c7.7-14.1,18.44-24.95,32.23-32.55,13.78-7.59,29.57-11.39,47.36-11.39,22.78,0,41.83,5.97,57.13,17.9,15.3,11.94,25.33,28.76,30.11,50.45h-59.24c-5-13.89-14.65-20.83-28.97-20.83-10.2,0-18.34,3.96-24.41,11.88-6.08,7.93-9.11,19.26-9.11,34.02s3.04,26.1,9.11,34.01c6.07,7.92,14.21,11.88,24.41,11.88,14.32,0,23.97-6.94,28.97-20.83h59.24c-4.78,21.27-14.87,37.98-30.27,50.13-15.41,12.16-34.4,18.23-56.96,18.23-17.79,0-33.58-3.8-47.36-11.39-13.78-7.59-24.52-18.44-32.23-32.55-7.71-14.1-11.56-30.6-11.56-49.48s3.85-35.37,11.56-49.48Z"/>
      <path class="st4" d="M1556.58,247.41c12.58,13.78,18.88,32.71,18.88,56.8v106.11h-55.34v-98.63c0-12.15-3.15-21.59-9.44-28.32-6.3-6.72-14.76-10.09-25.39-10.09s-19.1,3.37-25.39,10.09c-6.3,6.73-9.44,16.17-9.44,28.32v98.63h-55.66v-240.87h55.66v83.65c5.64-8.03,13.35-14.43,23.11-19.2,9.77-4.77,20.72-7.16,32.88-7.16,20.83,0,37.54,6.89,50.13,20.67Z"/>
    </g>
  </g>
  <g id="Layer_2">
    <g id="logo-logo">
      <g>
        <path class="st0" d="M26.25,457.74c-10.05,0-18.2-8.15-18.2-18.2V67.95c0-17.63,14.35-31.98,31.98-31.98h207.4c10.05,0,18.2,8.15,18.2,18.2s-8.15,18.2-18.2,18.2H44.45v367.16c0,10.05-8.15,18.2-18.2,18.2ZM429.81,425.74v-182.65c0-10.05-8.15-18.2-18.2-18.2s-18.2,8.15-18.2,18.2v178.24H123.69c-10.05,0-18.2,8.15-18.2,18.2s8.15,18.2,18.2,18.2h274.14c17.63,0,31.98-14.35,31.98-32Z"/>
        <path class="st2" d="M111.22,385.89c-9.37,0-16.98-7.62-16.98-16.98V124.81c0-9.37,7.62-16.98,16.98-16.98s16.98,7.62,16.98,16.98v244.1c0,9.37-7.62,16.98-16.98,16.98ZM205.44,331.09v-168.46c0-9.37-7.62-16.98-16.98-16.98s-16.98,7.62-16.98,16.98v168.46c0,9.37,7.62,16.98,16.98,16.98s16.98-7.62,16.98-16.98ZM282.68,286.9v-80.09c0-9.37-7.62-16.98-16.98-16.98s-16.98,7.62-16.98,16.98v80.09c0,9.37,7.62,16.98,16.98,16.98s16.98-7.62,16.98-16.98Z"/>
        <path class="st4" d="M361.96,209.27c-21.17,0-38.32,17.15-38.32,38.32v36.84c21.72-1.25,39-19.32,39-41.36v-33.8h-.68ZM489.98,146.49c-2.4-20.89-19.91-37.37-40.91-38.58-21.51-1.23-39.83,13.08-44.92,32.72h-41.51v-41.48c19.68-5.1,34.03-23.48,32.72-45.07-1.27-20.98-17.79-38.45-38.68-40.76-26.43-2.93-48.81,17.66-48.81,43.5,0,8.7,2.53,16.79,6.9,23.61,6.09,9.49,8.87,20.74,8.87,32.04v28.17h-52.72c-22.02,0-40.1,17.3-41.38,39.02h161.27c11.29,0,22.57,2.76,32.06,8.87,6.82,4.37,14.93,6.92,23.61,6.92,25.9,0,46.54-22.48,43.5-48.96ZM343.13,169.52c-5.18,0-9.4-4.2-9.4-9.4s4.22-9.4,9.4-9.4,9.4,4.22,9.4,9.4-4.19,9.4-9.4,9.4ZM334.98,56.82c0-9.21,7.45-16.69,16.67-16.69s16.69,7.47,16.69,16.69-7.47,16.69-16.69,16.69-16.67-7.47-16.67-16.69ZM446.48,168.34c-9.21,0-16.67-7.49-16.67-16.69s7.45-16.69,16.67-16.69,16.69,7.47,16.69,16.69-7.45,16.69-16.69,16.69Z"/>
      </g>
    </g>
  </g>
</svg>